<svg xmlns="http://www.w3.org/2000/svg" viewBox="-240 -150 480 410" width="100%" height="100%" aria-hidden="true" style="display: block"><ellipse cx="0.0" cy="121.0" rx="230" ry="133" fill="#1d1a25"></ellipse><ellipse cx="0.0" cy="111.0" rx="230" ry="133" fill="#29253a"></ellipse><ellipse cx="0.0" cy="111.0" rx="200" ry="115" fill="none" stroke="#3a3550" stroke-width="1"></ellipse><polygon points="-181.9,107.0 0.0,212.0 0.0,200.0 -181.9,95.0" fill="#e6e1d8"></polygon><polygon points="181.9,107.0 0.0,212.0 0.0,200.0 181.9,95.0" fill="#cfc8bc"></polygon><polygon points="0.0,-10.0 181.9,95.0 0.0,200.0 -181.9,95.0" fill="#e2cba9"></polygon><polyline points="26.0,5.0 -155.9,110.0" fill="none" stroke="#d2b993" stroke-width="0.8"></polyline><polyline points="43.3,15.0 -138.6,120.0" fill="none" stroke="#d2b993" stroke-width="0.8"></polyline><polyline points="60.6,25.0 -121.2,130.0" fill="none" stroke="#d2b993" stroke-width="0.8"></polyline><polyline points="77.9,35.0 -103.9,140.0" fill="none" stroke="#d2b993" stroke-width="0.8"></polyline><polyline points="95.3,45.0 -86.6,150.0" fill="none" stroke="#d2b993" stroke-width="0.8"></polyline><polyline points="112.6,55.0 -69.3,160.0" fill="none" stroke="#d2b993" stroke-width="0.8"></polyline><polyline points="129.9,65.0 -52.0,170.0" fill="none" stroke="#d2b993" stroke-width="0.8"></polyline><polyline points="147.2,75.0 -34.6,180.0" fill="none" stroke="#d2b993" stroke-width="0.8"></polyline><polyline points="164.5,85.0 -17.3,190.0" fill="none" stroke="#d2b993" stroke-width="0.8"></polyline><polygon points="-181.9,95.0 -173.2,100.0 -173.2,-30.0 -181.9,-35.0" fill="#f7f5f2"></polygon><polygon points="8.7,-5.0 -173.2,100.0 -173.2,-30.0 8.7,-135.0" fill="#dedad4"></polygon><polygon points="0.0,-140.0 8.7,-135.0 -173.2,-30.0 -181.9,-35.0" fill="#f7f5f2"></polygon><polygon points="0.0,0.0 173.2,100.0 173.2,-30.0 0.0,-130.0" fill="#efebe6"></polygon><polygon points="181.9,95.0 173.2,100.0 173.2,-30.0 181.9,-35.0" fill="#f7f5f2"></polygon><polygon points="8.7,-135.0 181.9,-35.0 173.2,-30.0 0.0,-130.0" fill="#f7f5f2"></polygon><polygon points="0.3,0.2 -172.9,100.2 -172.9,95.2 0.3,-4.8" fill="#f4f1ec"></polygon><polygon points="-0.3,0.2 172.9,100.2 172.9,95.2 -0.3,-4.8" fill="#f4f1ec"></polygon><polygon points="93.2,-9.8 148.6,22.2 148.6,-29.8 93.2,-61.8" fill="#ffffff"></polygon><polygon points="95.6,-11.2 119.9,2.8 119.9,-43.2 95.6,-57.2" fill="#c6d6e4"></polygon><polygon points="121.6,3.8 145.8,17.8 145.8,-28.2 121.6,-42.2" fill="#c6d6e4"></polygon><polygon points="83.8,-4.4 94.2,1.6 94.2,-66.4 83.8,-72.4" fill="#ffffff"></polygon><polygon points="146.2,31.6 156.6,37.6 156.6,-30.4 146.2,-36.4" fill="#ffffff"></polygon><polygon points="-23.9,-45.8 -49.9,-30.8 -49.9,-60.8 -23.9,-75.8" fill="#c9b28f"></polygon><polygon points="-26.3,-47.2 -47.1,-35.2 -47.1,-59.2 -26.3,-71.2" fill="#eef0f2"></polygon><polygon points="-30.5,-50.6 -42.6,-43.6 -42.6,-52.6 -30.5,-59.6" fill="#5b6a80"></polygon><polygon points="-76.2,120.0 6.9,168.0 6.9,166.8 -76.2,118.8" fill="#abb3bc"></polygon><polygon points="83.1,124.0 6.9,168.0 6.9,166.8 83.1,122.8" fill="#90969e"></polygon><polygon points="0.0,74.8 83.1,122.8 6.9,166.8 -76.2,118.8" fill="#c3ccd6"></polygon><polygon points="-6.1,3.5 56.3,39.5 56.3,-8.5 -6.1,-44.5" fill="#beab90"></polygon><polygon points="62.4,36.0 56.3,39.5 56.3,-8.5 62.4,-12.0" fill="#a09079"></polygon><polygon points="0.0,-48.0 62.4,-12.0 56.3,-8.5 -6.1,-44.5" fill="#d9c3a4"></polygon><polygon points="-93.5,54.0 -31.2,90.0 -31.2,72.0 -93.5,36.0" fill="#beab90"></polygon><polygon points="56.3,39.5 -31.2,90.0 -31.2,72.0 56.3,21.5" fill="#a09079"></polygon><polygon points="-6.1,-14.5 56.3,21.5 -31.2,72.0 -93.5,36.0" fill="#d9c3a4"></polygon><polygon points="-91.8,36.0 -31.2,71.0 -31.2,59.0 -91.8,24.0" fill="#d8d6d4"></polygon><polygon points="54.6,21.5 -31.2,71.0 -31.2,59.0 54.6,9.5" fill="#b6b4b2"></polygon><polygon points="-6.1,-25.5 54.6,9.5 -31.2,59.0 -91.8,24.0" fill="#f6f4f1"></polygon><polygon points="-19.1,-11.0 3.5,2.0 3.5,-5.0 -19.1,-18.0" fill="#e0e0e0"></polygon><polygon points="20.8,-8.0 3.5,2.0 3.5,-5.0 20.8,-15.0" fill="#bcbcbc"></polygon><polygon points="-1.7,-28.0 20.8,-15.0 3.5,-5.0 -19.1,-18.0" fill="#ffffff"></polygon><polygon points="6.9,4.0 29.4,17.0 29.4,10.0 6.9,-3.0" fill="#e0e0e0"></polygon><polygon points="46.8,7.0 29.4,17.0 29.4,10.0 46.8,0.0" fill="#bcbcbc"></polygon><polygon points="24.2,-13.0 46.8,0.0 29.4,10.0 6.9,-3.0" fill="#ffffff"></polygon><polygon points="-94.4,36.5 -32.0,72.5 -32.0,58.1 -94.4,22.1" fill="#d6d4d1"></polygon><polygon points="31.2,36.0 -32.0,72.5 -32.0,58.1 31.2,21.6" fill="#b4b3b0"></polygon><polygon points="-31.2,-14.4 31.2,21.6 -32.0,58.1 -94.4,22.1" fill="#f4f2ee"></polygon><polygon points="57.2,71.0 60.6,73.0 60.6,27.0 57.2,25.0" fill="#beab90"></polygon><polygon points="91.8,55.0 60.6,73.0 60.6,27.0 91.8,9.0" fill="#a09079"></polygon><polygon points="88.3,7.0 91.8,9.0 60.6,27.0 57.2,25.0" fill="#d9c3a4"></polygon><polygon points="116.0,105.0 119.5,107.0 119.5,61.0 116.0,59.0" fill="#beab90"></polygon><polygon points="150.7,89.0 119.5,107.0 119.5,61.0 150.7,43.0" fill="#a09079"></polygon><polygon points="147.2,41.0 150.7,43.0 119.5,61.0 116.0,59.0" fill="#d9c3a4"></polygon><polygon points="55.4,26.0 117.8,62.0 117.8,58.0 55.4,22.0" fill="#ccbea8"></polygon><polygon points="152.4,42.0 117.8,62.0 117.8,58.0 152.4,38.0" fill="#ab9f8e"></polygon><polygon points="90.1,2.0 152.4,38.0 117.8,58.0 55.4,22.0" fill="#e8d8c0"></polygon><polygon points="107.4,26.0 110.9,28.0 110.9,18.0 107.4,16.0" fill="#33323d"></polygon><polygon points="114.3,26.0 110.9,28.0 110.9,18.0 114.3,16.0" fill="#2b2a33"></polygon><polygon points="110.9,14.0 114.3,16.0 110.9,18.0 107.4,16.0" fill="#3b3946"></polygon><polygon points="94.4,5.5 129.0,25.5 129.0,1.5 94.4,-18.5" fill="#3c4250"></polygon><polygon points="131.6,24.0 129.0,25.5 129.0,1.5 131.6,0.0" fill="#2c2a35"></polygon><polygon points="97.0,-20.0 131.6,0.0 129.0,1.5 94.4,-18.5" fill="#2c2a35"></polygon><polygon points="74.5,19.0 91.8,29.0 91.8,28.0 74.5,18.0" fill="#cdcbd1"></polygon><polygon points="98.7,25.0 91.8,29.0 91.8,28.0 98.7,24.0" fill="#acaab0"></polygon><polygon points="81.4,14.0 98.7,24.0 91.8,28.0 74.5,18.0" fill="#e9e7ee"></polygon><polygon points="-159.3,92.0 -138.6,104.0 -138.6,60.0 -159.3,48.0" fill="#cec1ac"></polygon><polygon points="-93.5,78.0 -138.6,104.0 -138.6,60.0 -93.5,34.0" fill="#ada291"></polygon><polygon points="-114.3,22.0 -93.5,34.0 -138.6,60.0 -159.3,48.0" fill="#ebdcc4"></polygon><polygon points="52.0,98.0 69.3,108.0 69.3,105.0 52.0,95.0" fill="#33323d"></polygon><polygon points="86.6,98.0 69.3,108.0 69.3,105.0 86.6,95.0" fill="#2b2a33"></polygon><polygon points="69.3,85.0 86.6,95.0 69.3,105.0 52.0,95.0" fill="#3b3946"></polygon><polygon points="65.8,95.0 69.3,97.0 69.3,74.0 65.8,72.0" fill="#33323d"></polygon><polygon points="72.7,95.0 69.3,97.0 69.3,74.0 72.7,72.0" fill="#2b2a33"></polygon><polygon points="69.3,70.0 72.7,72.0 69.3,74.0 65.8,72.0" fill="#3b3946"></polygon><polygon points="48.5,72.0 69.3,84.0 69.3,77.6 48.5,65.6" fill="#505d70"></polygon><polygon points="90.1,72.0 69.3,84.0 69.3,77.6 90.1,65.6" fill="#434e5e"></polygon><polygon points="69.3,53.6 90.1,65.6 69.3,77.6 48.5,65.6" fill="#5b6a80"></polygon><polygon points="47.6,66.1 68.4,78.1 68.4,42.5 47.6,30.5" fill="#505d70"></polygon><polygon points="71.9,76.1 68.4,78.1 68.4,42.5 71.9,40.5" fill="#434e5e"></polygon><polygon points="51.1,28.5 71.9,40.5 68.4,42.5 47.6,30.5" fill="#5b6a80"></polygon><polygon points="-34.6,104.0 -17.3,114.0 -17.3,105.0 -34.6,95.0" fill="#505d70"></polygon><polygon points="0.0,104.0 -17.3,114.0 -17.3,105.0 0.0,95.0" fill="#434e5e"></polygon><polygon points="-17.3,85.0 0.0,95.0 -17.3,105.0 -34.6,95.0" fill="#5b6a80"></polygon><polygon points="-17.3,116.0 13.9,134.0 13.9,116.0 -17.3,98.0" fill="#afa291"></polygon><polygon points="34.6,122.0 13.9,134.0 13.9,116.0 34.6,104.0" fill="#93887a"></polygon><polygon points="3.5,86.0 34.6,104.0 13.9,116.0 -17.3,98.0" fill="#c7b9a5"></polygon><polygon points="-20.8,98.0 13.9,118.0 13.9,114.0 -20.8,94.0" fill="#ccbea8"></polygon><polygon points="38.1,104.0 13.9,118.0 13.9,114.0 38.1,100.0" fill="#ab9f8e"></polygon><polygon points="3.5,80.0 38.1,100.0 13.9,114.0 -20.8,94.0" fill="#e8d8c0"></polygon><polygon points="-8.7,179.0 5.2,187.0 5.2,169.0 -8.7,161.0" fill="#e0e0e0"></polygon><polygon points="19.1,179.0 5.2,187.0 5.2,169.0 19.1,161.0" fill="#bcbcbc"></polygon><polygon points="5.2,153.0 19.1,161.0 5.2,169.0 -8.7,161.0" fill="#ffffff"></polygon><ellipse cx="-7.0" cy="139.2" rx="11.0" ry="4.6" transform="rotate(-160 -7.0 139.2)" fill="#6f8a66"></ellipse><ellipse cx="-4.3" cy="135.5" rx="11.0" ry="4.6" transform="rotate(-137 -4.3 135.5)" fill="#8aa37e"></ellipse><ellipse cx="0.0" cy="132.9" rx="11.0" ry="4.6" transform="rotate(-113 0.0 132.9)" fill="#6f8a66"></ellipse><ellipse cx="5.2" cy="132.0" rx="11.0" ry="4.6" transform="rotate(-90 5.2 132.0)" fill="#8aa37e"></ellipse><ellipse cx="10.3" cy="132.9" rx="11.0" ry="4.6" transform="rotate(-67 10.3 132.9)" fill="#6f8a66"></ellipse><ellipse cx="14.7" cy="135.5" rx="11.0" ry="4.6" transform="rotate(-43 14.7 135.5)" fill="#8aa37e"></ellipse><ellipse cx="17.4" cy="139.2" rx="11.0" ry="4.6" transform="rotate(-20 17.4 139.2)" fill="#6f8a66"></ellipse><ellipse cx="-3.4" cy="126.4" rx="9.9" ry="4.1" transform="rotate(-160 -3.4 126.4)" fill="#8aa37e"></ellipse><ellipse cx="-0.0" cy="122.7" rx="9.9" ry="4.1" transform="rotate(-125 -0.0 122.7)" fill="#6f8a66"></ellipse><ellipse cx="5.2" cy="121.3" rx="9.9" ry="4.1" transform="rotate(-90 5.2 121.3)" fill="#8aa37e"></ellipse><ellipse cx="10.4" cy="122.7" rx="9.9" ry="4.1" transform="rotate(-55 10.4 122.7)" fill="#6f8a66"></ellipse><ellipse cx="13.7" cy="126.4" rx="9.9" ry="4.1" transform="rotate(-20 13.7 126.4)" fill="#8aa37e"></ellipse><polygon points="109.1,121.0 110.9,122.0 110.9,34.0 109.1,33.0" fill="#292c3a"></polygon><polygon points="112.6,121.0 110.9,122.0 110.9,34.0 112.6,33.0" fill="#222530"></polygon><polygon points="110.9,32.0 112.6,33.0 110.9,34.0 109.1,33.0" fill="#2f3342"></polygon><polygon points="98.7,33.0 110.9,40.0 110.9,28.0 98.7,21.0" fill="#e0e0e0"></polygon><polygon points="123.0,33.0 110.9,40.0 110.9,28.0 123.0,21.0" fill="#bcbcbc"></polygon><polygon points="110.9,14.0 123.0,21.0 110.9,28.0 98.7,21.0" fill="#ffffff"></polygon></svg>